<svg height="512" viewBox="0 0 64 64" width="512" xmlns="http://www.w3.org/2000/svg"><path d="M33 38.858c1.72-.447 3-1.999 3-3.858 0-2.206-1.794-4-4-4-1.103 0-2-.897-2-2s.897-2 2-2 2 .897 2 2h2c0-1.859-1.28-3.411-3-3.858V23h-2v2.142c-1.72.447-3 1.999-3 3.858 0 2.206 1.794 4 4 4 1.103 0 2 .897 2 2s-.897 2-2 2-2-.897-2-2h-2c0 1.859 1.28 3.411 3 3.858V41h2zM32 19c-7.168 0-13 5.832-13 13h2c0-6.065 4.935-11 11-11zM43 32c0 6.065-4.935 11-11 11v2c7.168 0 13-5.832 13-13zM21.6 8.164a25.899 25.899 0 00-8.319 5.792l1.439 1.389a23.952 23.952 0 017.681-5.349zM25.761 6.754a25.69 25.69 0 00-2.082.606l.642 1.895c.624-.211 1.27-.399 1.918-.56zM29.922 6.082c-.683.054-1.383.138-2.08.249l.316 1.975a23.11 23.11 0 011.92-.229z"/><path d="M32 3c7.747 0 15.029 3.017 20.506 8.494a1.03 1.03 0 001.414 0L56 9.414V17h-7.586l1.971-1.971a.999.999 0 000-1.414C45.474 8.704 38.945 6 32 6v2c6.076 0 11.808 2.243 16.249 6.337l-2.956 2.956A1 1 0 0046 19h11a1 1 0 001-1V7a1 1 0 00-1.707-.707l-3.091 3.091C47.437 3.97 39.947 1 32 1 14.907 1 1 14.906 1 32h2C3 16.01 16.009 3 32 3zM50.72 50.044l-1.439-1.389a23.952 23.952 0 01-7.681 5.349l.801 1.832a25.91 25.91 0 008.319-5.792zM38.239 57.246a25.69 25.69 0 002.082-.606l-.642-1.895c-.624.211-1.27.399-1.918.56zM34.078 57.918a26.638 26.638 0 002.08-.249l-.316-1.975a23.11 23.11 0 01-1.92.229z"/><path d="M61 32c0 15.99-13.009 29-29 29-7.747 0-15.029-3.017-20.506-8.494a1.03 1.03 0 00-1.414 0L8 54.586V47h7.586l-1.971 1.971a.999.999 0 000 1.414C18.526 55.296 25.055 58 32 58v-2c-6.076 0-11.808-2.243-16.249-6.337l2.956-2.956A1 1 0 0018 45H7a1 1 0 00-1 1v11a1 1 0 001.707.707l3.091-3.091C16.563 60.03 24.053 63 32 63c17.093 0 31-13.906 31-31z"/><path d="M49 32c0-9.374-7.626-17-17-17s-17 7.626-17 17 7.626 17 17 17 17-7.626 17-17zM32 47c-8.271 0-15-6.729-15-15s6.729-15 15-15 15 6.729 15 15-6.729 15-15 15z"/></svg>