<svg xmlns="http://www.w3.org/2000/svg" viewBox="0 0 490.667 490.667"><path d="M245.333 0C110.059 0 0 110.059 0 245.333s110.059 245.333 245.333 245.333 245.333-110.059 245.333-245.333S380.608 0 245.333 0zm0 469.333c-123.52 0-224-100.48-224-224s100.48-224 224-224 224 100.48 224 224-100.48 224-224 224z"/><path d="M348.885 333.803L256 240.917V74.667C256 68.779 251.221 64 245.333 64s-10.667 4.779-10.667 10.667v170.667c0 2.837 1.131 5.547 3.115 7.552l96 96a10.716 10.716 0 0015.104 0c4.16-4.161 4.16-10.923 0-15.083z"/></svg>