<svg id="Capa_1" version="1.1" viewBox="0 0 512 512" xml:space="preserve" xmlns="http://www.w3.org/2000/svg"><style>.st0{fill:#232323}</style><path class="st0" d="M255.3.3C114.2.3-.6 115.1-.6 256.3s114.8 255.9 255.9 255.9c64.5 0 126.1-24.1 173.5-67.8 4.5-4.2 4.8-11.2.6-15.7s-11.2-4.8-15.7-.6C370.5 468 314.3 490 255.3 490 126.5 490 21.6 385.1 21.6 256.3S126.5 22.5 255.3 22.5C384.2 22.5 489 127.4 489 256.2c0 43.7-12.1 86.3-35 123.2-3.2 5.2-1.6 12 3.6 15.3 5.2 3.2 12 1.6 15.3-3.6 25.1-40.4 38.4-87.1 38.4-134.9C511.3 115.1 396.5.3 255.3.3z"/><path class="st0" d="M362.1 149.9c-4.3-4.3-11.3-4.3-15.7 0l-92.9 92.9-92.9-92.9c-4.3-4.3-11.3-4.3-15.7 0-4.3 4.3-4.3 11.4 0 15.7l92.9 92.9-92.8 92.8c-4.3 4.3-4.3 11.4 0 15.7 2.2 2.2 5 3.2 7.8 3.2s5.7-1.1 7.8-3.2l92.9-92.9 92.9 92.9c2.2 2.2 5 3.2 7.8 3.2s5.7-1.1 7.8-3.2c4.3-4.3 4.3-11.4 0-15.7l-92.9-92.9 92.9-92.9c4.4-4.3 4.4-11.3.1-15.6z"/></svg>