<svg xmlns="http://www.w3.org/2000/svg" width="40pt" height="40pt" viewBox="0 0 40 40"><path fill="#f44336" d="M19.602.512c-.204.23-1.11 1.234-2.004 2.238-.957 1.066-1.672 1.828-1.723 1.828-.043 0-.668-.191-1.379-.418a625.6 625.6 0 00-4.289-1.383c-.086-.027-.172-.043-.184-.03a400.17 400.17 0 00-.671 2.976 294.901 294.901 0 01-.66 2.968c-.005.004-1.344.305-2.97.66-1.628.364-2.972.669-2.98.68-.02.02.39 1.32 1.383 4.371.25.766.453 1.43.453 1.473 0 .05-.89.887-2.074 1.945-1.14 1.02-2.152 1.93-2.25 2.016L.074 20l.176.16c.094.09 1.11 1 2.254 2.02 1.152 1.035 2.074 1.894 2.074 1.941 0 .043-.394 1.3-.875 2.793-1.05 3.27-.98 3.043-.957 3.063.004.003 1.348.308 2.977.671 1.625.356 2.965.66 2.968.66.004.005.305 1.344.66 2.97.364 1.628.669 2.972.68 2.98.012.015.969-.281 4.246-1.344.836-.273 1.555-.492 1.602-.492.047 0 .441.398.871.883a482.708 482.708 0 012.473 2.765c.41.457.757.832.777.832.02 0 .098-.078.18-.16.078-.09.547-.613 1.035-1.16.488-.547.969-1.086 1.07-1.195.098-.11.535-.594.969-1.082.433-.485.82-.883.871-.883.043 0 .762.219 1.598.492 3.277 1.063 4.234 1.36 4.246 1.344.011-.008.316-1.352.672-2.98.363-1.626.664-2.958.668-2.965.003-.004 1.343-.31 2.968-.665 1.63-.363 2.973-.668 2.98-.68.016-.011-.253-.863-1.366-4.32-.258-.793-.47-1.48-.47-1.527 0-.047.4-.433.888-.867.484-.434.906-.813.933-.84.031-.027.645-.574 1.356-1.215.715-.64 1.304-1.183 1.304-1.199 0-.031-.496-.477-2.215-2.016-.28-.25-.902-.8-1.382-1.234-.508-.453-.883-.824-.883-.875 0-.05.2-.7.445-1.453.82-2.531 1.34-4.149 1.371-4.274l.032-.128-2.977-.66c-1.637-.364-2.98-.669-2.984-.669 0-.004-.305-1.343-.66-2.968-.364-1.63-.669-2.973-.68-2.98-.012-.016-1.043.308-4.149 1.312-.89.289-1.656.523-1.699.523-.047 0-.957-.976-2.086-2.238C20.934 1.105 20.02.098 20 .098c-.016 0-.195.187-.398.414zm-3.258 10.082c1.37.347 2.328 1.355 2.617 2.765.09.438.098.621.078 1.567-.023 1.183-.074 1.46-.352 2.054-.335.723-.835 1.239-1.574 1.622-.531.277-1.015.402-1.691.437-2.117.106-3.645-1.125-3.961-3.187-.11-.711-.066-2.137.078-2.688a3.38 3.38 0 01.809-1.496c.574-.613 1.254-.98 2.113-1.145.504-.093 1.351-.066 1.883.07zm8.281 1.953c.441.254.797.476.797.496 0 .031-9.133 14.754-9.203 14.832-.04.047-1.637-.855-1.64-.918 0-.023.53-.89 1.183-1.941 1.203-1.93 2.441-3.922 4.761-7.653 2.575-4.144 3.282-5.273 3.297-5.273.012 0 .375.207.805.457zm1.098 8.496c1.226.254 2.156 1.055 2.609 2.254.348.937.375 2.824.043 3.816-.188.563-.387.875-.86 1.344-.484.484-.972.762-1.667.95-.563.155-1.618.155-2.192.007-1.043-.285-1.851-.922-2.281-1.809-.336-.69-.387-.949-.414-2.128-.035-1.418.078-2.036.527-2.786.797-1.34 2.5-2.003 4.235-1.648zm0 0"/><path fill="#f44336" d="M14.75 12.36c-.586.183-1.02.69-1.164 1.363-.074.367-.07 1.754.016 2.101.125.528.453.942.921 1.16.188.086.325.106.75.106.47-.004.547-.016.778-.133a1.59 1.59 0 00.773-.953c.145-.48.156-1.93.016-2.41-.113-.406-.399-.844-.656-1.024a1.763 1.763 0 00-1.434-.21zm9.453 10.59c-.531.179-.86.507-1.023 1.027-.086.28-.102.457-.106 1.246 0 .78.016.972.102 1.23.273.867.875 1.309 1.703 1.25.605-.047 1.078-.363 1.36-.922.195-.386.238-.758.218-1.71-.023-.997-.094-1.259-.441-1.653-.301-.344-.664-.496-1.184-.516-.262-.011-.508.008-.629.047zm0 0"/></svg>