<svg height="512pt" viewBox="0 0 512 512.01" width="512pt" xmlns="http://www.w3.org/2000/svg"><path d="M256.008.004A252.624 252.624 0 0095.945 56.336 268.251 268.251 0 0088 62.969a222.585 222.585 0 00-25.004 25.004 293.522 293.522 0 00-4.715 5.59C-25.399 195.28-18.19 343.905 74.941 437.05c93.13 93.144 241.754 100.37 343.485 16.703a294.408 294.408 0 005.594-4.715 222.252 222.252 0 0024.972-24.96c2.324-2.68 4.645-5.368 6.688-8.017a252.632 252.632 0 0056.328-160.058c-.16-141.32-114.68-255.844-256-256zm186.281 405.48c-1.953 2.524-4.07 4.961-6.234 7.461a205.56 205.56 0 01-23.13 23.125 294.196 294.196 0 01-5.331 4.5c-94.946 78.094-233.664 71.348-320.586-15.586C.086 338.051-6.641 199.332 71.465 104.398a307.96 307.96 0 014.504-5.332 204.782 204.782 0 0123.16-23.152 275.922 275.922 0 017.52-6.285A235.764 235.764 0 01256.007 17.07c131.898.145 238.785 107.035 238.933 238.934a235.875 235.875 0 01-52.652 149.48zm0 0"/><path d="M107.332 129.395a8.307 8.307 0 00-6.555-2.485 8.537 8.537 0 00-6.199 3.262c-63.629 81.465-56.52 197.59 16.57 270.683 73.094 73.098 189.22 80.211 270.684 16.586a8.538 8.538 0 00.785-12.766zm148.676 314.34c-69.996.058-134.203-38.868-166.531-100.954-32.329-62.086-27.395-137.008 12.789-194.32l261.28 261.277a188.417 188.417 0 01-107.538 33.996zm0 0M316.84 60.426c-63.024-19.594-131.63-7.578-184.242 32.27a8.518 8.518 0 00-3.371 6.214 8.539 8.539 0 002.476 6.625l274.774 274.688a8.513 8.513 0 006.617 2.48 8.52 8.52 0 006.21-3.355c40.27-53.16 52.102-122.61 31.7-186.106C430.605 129.75 380.539 80.184 316.84 60.426zm94.598 300.629L150.882 100.582A186.02 186.02 0 01256.008 68.27c69.46-.067 133.27 38.257 165.836 99.609 32.57 61.351 28.566 135.676-10.406 193.172zm0 0"/></svg>