<svg height="512pt" viewBox="-32 0 512 512" width="512pt" xmlns="http://www.w3.org/2000/svg"><path d="M192 512c-68.395 0-132.672-26.625-181.035-74.988-4.16-4.16-4.16-10.922 0-15.082s10.922-4.16 15.082 0C70.379 466.262 129.324 490.668 192 490.668s121.602-24.406 165.93-68.738c44.332-44.328 68.738-103.254 68.738-165.93S402.262 134.379 357.93 90.047C313.602 45.719 254.676 21.332 192 21.332S70.398 45.738 26.07 90.07c-4.16 4.16-10.922 4.16-15.082 0s-4.16-10.922 0-15.082C59.348 26.625 123.625 0 192 0c68.395 0 132.672 26.625 181.035 74.988C421.398 123.348 448 187.625 448 256s-26.625 132.652-74.988 181.012C324.652 485.375 260.375 512 192 512zm0 0"/><path d="M96 106.668H10.668C4.778 106.668 0 101.887 0 96V10.668C0 4.778 4.777 0 10.668 0c5.887 0 10.664 4.777 10.664 10.668v74.664H96c5.887 0 10.668 4.781 10.668 10.668S101.887 106.668 96 106.668zm0 0"/></svg>