<svg xmlns="http://www.w3.org/2000/svg" viewBox="0 0 392.6 392.6"><path d="M387.1 99.4c-.4-.8-.4-1.2-1.2-2-.4-.8-1.2-1.2-2.4-1.6l-91.6-47.6L199.1.6c-1.6-.8-3.6-.8-5.2 0l-93.2 47.6-92 47.6c-1.2.4-2.4 1.6-2.8 2.8-.4.8-.4 1.2-.8 2v190.8c0 2 1.2 4 3.2 5.2l185.2 94.8s.4 0 .4.4c0 0 .4 0 .4.4.8.4 1.2.4 2 .4s1.2 0 2-.4c0 0 .4 0 .4-.4 0 0 .4 0 .4-.4l185.2-94.8c2-1.2 3.2-3.2 3.2-5.2V101c0-.8 0-1.2-.4-1.6zM196.3 12.2l90 46.4 82.8 42.4-56.8 29.2-172.8-88.8 56.8-29.2zm75.2 151.6l20-10.4 13.2-6.8v24.8l-10.8-4.8c-2.4-1.2-5.2-.4-6.8 1.6L271.9 187v-23.2h-.4zM106.3 58.6l20.4-10.4 172.8 88.4-33.6 17.6L93.1 65.4l13.2-6.8zm84.4 318.8l-174-89.6V110.6l84.4 43.2 89.6 46v177.6zm5.6-187.6l-90-46.4L23.5 101l56.8-29.2 172.8 88.8-56.8 29.2zm179.6 98.4l-174 88.8V199.8l58.4-30v33.6c0 3.2 2.4 5.6 5.6 5.6 2 0 3.6-.8 4.8-2.4l22.4-27.6 15.2 6.4c2.8 1.2 6.4 0 7.6-3.2.4-.4.4-1.2.4-2V141l59.6-30.4v177.6z"/></svg>