<svg height="512" width="512" xmlns="http://www.w3.org/2000/svg"><circle cx="377.582" cy="155.811" r="7.5"/><circle cx="316.346" cy="399.049" r="7.5"/><circle cx="141.834" cy="140.811" r="7.5"/><path d="M437.02 74.98C388.668 26.629 324.38 0 256 0S123.333 26.629 74.98 74.98C26.628 123.332 0 187.62 0 256s26.628 132.668 74.98 181.02C123.333 485.371 187.62 512 256 512s132.668-26.629 181.02-74.98C485.371 388.668 512 324.38 512 256s-26.629-132.668-74.98-181.02zm-10.607 351.433C380.894 471.932 320.374 497 256 497s-124.894-25.068-170.413-70.587S15 320.374 15 256 40.068 131.106 85.587 85.587 191.627 15 256 15s124.894 25.068 170.413 70.587S497 191.626 497 256s-25.068 124.894-70.587 170.413z"/><path d="M412.379 268.743h-.938c.105-1.383.184-2.767.218-4.145.83-34.507-18.834-66.245-50.097-80.856-10.675-4.989-19.267-14.444-23.574-25.941-12.637-33.734-45.336-56.399-81.368-56.399a7.5 7.5 0 000 15c29.812 0 56.866 18.751 67.321 46.661 5.755 15.364 16.86 27.534 31.269 34.269 25.869 12.091 42.14 38.353 41.453 66.905a65.665 65.665 0 01-.27 4.507h-44.491a52.61 52.61 0 002.224-13.877c.535-22.211-12.123-42.642-32.248-52.047-5.824-2.722-10.519-7.899-12.88-14.202-8.135-21.715-29.184-36.305-52.378-36.305s-44.244 14.59-52.378 36.305c-2.361 6.303-7.056 11.48-12.881 14.202-20.124 9.406-32.782 29.835-32.247 52.046a52.61 52.61 0 002.223 13.878h-44.494a65.66 65.66 0 01-.266-4.506c-.688-28.553 15.583-54.816 41.452-66.906 14.409-6.734 25.514-18.904 31.269-34.269 7.061-18.848 21.822-33.971 40.5-41.49a7.5 7.5 0 10-5.601-13.915c-22.572 9.087-40.412 27.364-48.945 50.143-4.307 11.497-12.899 20.952-23.574 25.941-31.263 14.612-50.927 46.35-50.097 80.857.033 1.378.114 2.761.219 4.144h-2.18c-8.174 0-14.824 6.65-14.824 14.824 0 40.506 32.955 73.461 73.461 73.461H248.5v42.021a7.5 7.5 0 0015 0v-42.021h33.06a7.5 7.5 0 000-15h-32.8a81.307 81.307 0 00-.199-1.86c4.559-31.855 32.008-56.424 65.104-56.424h83.538c-.096 32.154-26.284 58.285-58.461 58.285H326.56a7.5 7.5 0 000 15h27.182c40.507 0 73.461-32.954 73.461-73.461 0-8.175-6.65-14.825-14.824-14.825zm-312.582 15h83.538c33.096 0 60.544 24.57 65.104 56.424a81.307 81.307 0 00-.199 1.86h-89.982c-32.176 0-58.365-26.13-58.461-58.284zM256 314.258c-13.119-26.919-40.758-45.515-72.664-45.515h-6.066c-1.978-4.597-3.042-9.376-3.159-14.239a40.967 40.967 0 0123.602-38.097c9.488-4.434 16.795-12.435 20.577-22.529 5.953-15.891 21.357-26.567 38.331-26.567s32.378 10.676 38.331 26.567c3.781 10.094 11.089 18.095 20.576 22.529a40.968 40.968 0 0123.603 38.098c-.117 4.861-1.181 9.64-3.158 14.238h-7.308c-31.907 0-59.546 18.596-72.665 45.515z"/><path d="M256.852 220.496c-12.891 0-24.788 5.873-32.64 16.112a7.501 7.501 0 0011.904 9.128c4.99-6.508 12.548-10.24 20.736-10.24 7.96 0 15.386 3.565 20.376 9.781a7.5 7.5 0 0011.698-9.389c-7.852-9.782-19.543-15.392-32.074-15.392z"/></svg>