<svg height="511pt" viewBox="0 0 511.998 511" width="511pt" xmlns="http://www.w3.org/2000/svg"><path d="M504.098 102.809H462.41a43.378 43.378 0 003.27-5.356 43.414 43.414 0 002.047-34.812l-12.633-33.953a43.363 43.363 0 00-24.266-25.012 43.393 43.393 0 00-34.867 1l-99.977 47.48a30.016 30.016 0 00-17.507-5.617h-44.954a30.03 30.03 0 00-17.511 5.621L116.039 4.672a43.41 43.41 0 00-34.867-.996C69.965 8.23 61.117 17.348 56.906 28.684l-12.633 33.96a43.39 43.39 0 002.051 34.81 42.624 42.624 0 003.27 5.355H7.902A7.901 7.901 0 000 110.71v56.887a7.904 7.904 0 007.902 7.902 7.904 7.904 0 007.903-7.902v-48.989H70.69c.88.309 1.77.594 2.672.844l66.34 18.262a527.866 527.866 0 00-38.879 70.972h-85.02v-9.484a7.9 7.9 0 00-7.902-7.898A7.9 7.9 0 000 199.203v17.387a7.904 7.904 0 007.902 7.902h28.18v279.754a7.901 7.901 0 007.902 7.902h424.032a7.901 7.901 0 007.902-7.902v-45.883a7.904 7.904 0 00-7.902-7.902 7.901 7.901 0 00-7.903 7.902v37.985H303.406V229.352c22.383 42.394 37.535 88.492 44.508 136.12a7.898 7.898 0 007.82 6.755 7.897 7.897 0 006.309-3.145c11.36-15.07 21.922-31.203 31.457-48.047 15.969 10.875 31.473 23 46.184 36.125a7.903 7.903 0 0013.078-7.043c-6.309-43.035-18.07-85.355-34.742-125.625h42.09v202.262a7.901 7.901 0 007.902 7.902 7.899 7.899 0 007.902-7.902V224.492h28.184a7.9 7.9 0 007.898-7.902V110.71a7.893 7.893 0 00-7.898-7.901zm-101.36-83.86c7.051-3.344 14.91-3.57 22.14-.633 7.22 2.934 12.688 8.57 15.403 15.88l12.63 33.949c2.718 7.312 2.253 15.164-1.302 22.105-3.55 6.938-9.648 11.898-17.164 13.965L308.66 138.844v-37.977c28.274-17.312 98.758-53.02 116.3-28.258a7.899 7.899 0 0011.013 1.883c3.562-2.523 4.406-7.457 1.882-11.015-13.539-19.114-42.07-20.043-84.808-2.758-17.606 7.117-33.86 15.804-44.387 21.832v-5.832c0-4.23-.879-8.262-2.457-11.922zM233.523 62.34h44.954c7.93 0 14.378 6.454 14.378 14.38v65.316c0 7.93-6.449 14.38-14.378 14.38h-44.954c-7.93 0-14.378-6.45-14.378-14.38V76.72c0-7.93 6.449-14.38 14.378-14.38zm-13.28 146.345a421.449 421.449 0 0124.636-36.465h22.234a419.679 419.679 0 0124.637 36.465zM60.39 90.25c-3.555-6.941-4.02-14.793-1.305-22.102l12.637-33.957c2.71-7.304 8.18-12.941 15.398-15.875 7.227-2.937 15.09-2.71 22.137.633l96.539 45.856a29.997 29.997 0 00-2.457 11.918v6.28c-10.492-6.038-27.113-14.983-45.168-22.284-42.735-17.285-71.27-16.356-84.809 2.758-2.523 3.558-1.68 8.492 1.883 11.015a7.895 7.895 0 0011.012-1.883c17.707-24.996 89.351 11.621 117.082 28.739v37.496L77.559 104.219c-7.52-2.07-13.618-7.031-17.168-13.969zm146.496 65.96c3.933 7.36 10.824 12.911 19.078 15.048-36.957 51.562-62.399 110.808-74.332 173.082a432.414 432.414 0 01-23.426-38.399 7.894 7.894 0 00-11.266-2.86c-13.16 8.583-26.046 17.997-38.492 28.107 12.817-67.274 39.297-132.141 77.27-189.063zm-155 68.282H93.98c-16.671 40.27-28.433 82.586-34.746 125.625a7.9 7.9 0 004.07 8.102 7.908 7.908 0 009.008-1.059c14.711-13.125 30.215-25.25 46.188-36.125 9.535 16.844 20.094 32.973 31.457 48.047a7.901 7.901 0 006.309 3.148c.652 0 1.308-.082 1.957-.25a7.894 7.894 0 005.859-6.507c6.977-47.63 22.129-93.73 44.508-136.125v267H51.887zm172.508 271.856V224.492h63.21v271.856zm170.664-193.266a7.905 7.905 0 00-11.266 2.86 431.851 431.851 0 01-23.426 38.398c-11.933-62.278-37.375-121.52-74.336-173.078 8.254-2.133 15.149-7.688 19.082-15.051l51.18-14.09c37.965 56.934 64.445 121.8 77.262 189.066-12.45-10.109-25.336-19.523-38.496-28.105zm101.136-94.395H411.18a528.277 528.277 0 00-38.875-70.972l66.332-18.262c.902-.25 1.793-.535 2.672-.844h54.886zm0 0"/></svg>