<svg xmlns="http://www.w3.org/2000/svg" viewBox="0 0 412.338 412.338"><path d="M404.275 362.88L299.188 257.794c-3.585-3.601-8.12-5.869-12.924-6.974 18.176-25.67 28.962-56.924 28.962-90.715 0-86.911-70.694-157.613-157.613-157.613C70.702 2.491 0 73.186 0 160.104c0 86.903 70.702 157.605 157.613 157.605 36.075 0 69.239-12.355 95.82-32.848 1.236 4.324 3.438 8.429 6.836 11.835L365.371 401.79c5.202 5.202 12.103 8.055 19.46 8.055s14.258-2.861 19.452-8.055c5.202-5.202 8.064-12.112 8.055-19.476-.008-7.347-2.869-14.248-8.063-19.434zM16.249 160.096c0-77.945 63.411-141.356 141.356-141.356 77.937 0 141.348 63.411 141.348 141.356 0 37.383-14.705 71.328-38.481 96.641-.114.098-.228.138-.35.228-.163.171-.203.39-.366.545-25.751 26.995-61.98 43.919-102.136 43.919-77.952.015-141.371-63.404-141.371-141.333zm376.532 230.193c-4.251 4.259-11.664 4.251-15.916 0L271.763 285.203c-4.381-4.389-4.381-11.534 0-15.924 2.13-2.13 4.958-3.3 7.966-3.3s5.828 1.179 7.958 3.3L392.789 374.39a11.138 11.138 0 013.284 7.942 11.128 11.128 0 01-3.292 7.957z" fill="#010002"/></svg>